<svg width="410" height="404" viewBox="0 0 410 404" fill="none" xmlns="http://www.w3.org/2000/svg">
<path d="M122.743 53.8024C120.966 53.8024 119.251 53.5854 117.597 53.1514C115.965 52.6968 114.632 52.1181 113.598 51.4154L115.613 46.8894C116.585 47.5094 117.701 48.0261 118.961 48.4394C120.243 48.8321 121.514 49.0284 122.774 49.0284C123.622 49.0284 124.304 48.9561 124.82 48.8114C125.337 48.6461 125.709 48.4394 125.936 48.1914C126.184 47.9228 126.308 47.6128 126.308 47.2614C126.308 46.7654 126.081 46.3728 125.626 46.0834C125.172 45.7941 124.583 45.5564 123.859 45.3704C123.136 45.1844 122.33 44.9984 121.441 44.8124C120.573 44.6264 119.695 44.3888 118.806 44.0994C117.938 43.8101 117.143 43.4381 116.419 42.9834C115.696 42.5081 115.107 41.8984 114.652 41.1544C114.198 40.3898 113.97 39.4288 113.97 38.2714C113.97 36.9694 114.322 35.7914 115.024 34.7374C115.748 33.6834 116.822 32.8361 118.248 32.1954C119.674 31.5548 121.452 31.2344 123.58 31.2344C125.006 31.2344 126.401 31.3998 127.765 31.7304C129.15 32.0404 130.38 32.5054 131.454 33.1254L129.563 37.6824C128.53 37.1244 127.507 36.7111 126.494 36.4424C125.482 36.1531 124.5 36.0084 123.549 36.0084C122.702 36.0084 122.02 36.1014 121.503 36.2874C120.987 36.4528 120.615 36.6801 120.387 36.9694C120.16 37.2588 120.046 37.5894 120.046 37.9614C120.046 38.4368 120.263 38.8191 120.697 39.1084C121.152 39.3771 121.741 39.6044 122.464 39.7904C123.208 39.9558 124.014 40.1314 124.882 40.3174C125.771 40.5034 126.649 40.7411 127.517 41.0304C128.406 41.2991 129.212 41.6711 129.935 42.1464C130.659 42.6011 131.237 43.2108 131.671 43.9754C132.126 44.7194 132.353 45.6598 132.353 46.7964C132.353 48.0571 131.992 49.2248 131.268 50.2994C130.566 51.3534 129.501 52.2008 128.075 52.8414C126.67 53.4821 124.893 53.8024 122.743 53.8024ZM149.697 31.6684H155.835V53.3684H149.697V31.6684ZM141.327 53.3684H135.189V31.6684H141.327V53.3684ZM150.131 44.9054H140.893V39.8214H150.131V44.9054ZM165.806 40.0694H175.881V44.6574H165.806V40.0694ZM166.24 48.6254H177.586V53.3684H160.164V31.6684H177.183V36.4114H166.24V48.6254ZM180.992 53.3684V31.6684H190.912C192.896 31.6684 194.601 31.9888 196.027 32.6294C197.474 33.2701 198.59 34.2001 199.375 35.4194C200.161 36.6181 200.553 38.0441 200.553 39.6974C200.553 41.3301 200.161 42.7458 199.375 43.9444C198.59 45.1224 197.474 46.0318 196.027 46.6724C194.601 47.2924 192.896 47.6024 190.912 47.6024H184.402L187.13 45.0294V53.3684H180.992ZM194.415 53.3684L189.021 45.4634H195.562L200.987 53.3684H194.415ZM187.13 45.6804L184.402 42.8594H190.54C191.822 42.8594 192.772 42.5804 193.392 42.0224C194.033 41.4644 194.353 40.6894 194.353 39.6974C194.353 38.6848 194.033 37.8994 193.392 37.3414C192.772 36.7834 191.822 36.5044 190.54 36.5044H184.402L187.13 33.6834V45.6804ZM203.94 53.3684V31.6684H210.078V53.3684H203.94ZM220.149 41.1854H230.162V45.9284H220.149V41.1854ZM220.583 53.3684H214.445V31.6684H231.464V36.4114H220.583V53.3684ZM240.038 41.1854H250.051V45.9284H240.038V41.1854ZM240.472 53.3684H234.334V31.6684H251.353V36.4114H240.472V53.3684Z" fill="black" fill-opacity="0.71"/>
<circle cx="55.5" cy="32.1316" r="32.1316" fill="#F23456"/>
<circle cx="79.8421" cy="87.6316" r="23.3684" fill="#F6B718" fill-opacity="0.67"/>
<circle cx="23.3684" cy="87.6316" r="23.3684" fill="#F8C2CC"/>
</svg>
