<svg height="32" viewBox="0 0 34 32" width="34" xmlns="http://www.w3.org/2000/svg"><path d="m772.771166 24.2352932v18.8235281c0 .5197966-.434909.9411764-.971395.9411764h-4.856979c-.536487 0-.971396-.4213798-.971396-.9411764v-18.8235281.0000002c0-.5197967.434909-.9411764.971396-.9411764h4.856979-.000001c.536487 0 .971396.4213797.971396.9411764zm26.227686 7.3599995.000001-.0000223c.066954-4.075482-2.802652-7.6468323-6.89693-8.5835099l.000001.0000001c-2.743708-.5724103-5.603633.1782059-7.674008 2.0141175v-.7905882c0-.5197967-.434909-.9411764-.971395-.9411764h-.000001-4.856979c-.536486 0-.971395.4213797-.971395.9411764v18.823528.0000002c0 .5197966.434909.9411819.971395.9411819h4.856979c.536487 0 .971396-.4213853.971396-.9411819v-10.6164698.0000035c-.047978-1.8904093 1.311872-3.5413268 3.225034-3.9152939 2.11467-.3536828 4.124877 1.0205515 4.489908 3.0694398.040901.2295718.059721.4623266.056217.6952677v10.7670581.0000001c0 .5197967.434909.9411764.971395.9411764h4.856979c.536487 0 .971396-.4213797.971396-.9411764zm-30.113269-19.5952927c-2.145949 0-3.885583 1.6855171-3.885583 3.7647056 0 2.0791904 1.739636 3.7647056 3.885583 3.7647056 2.145949 0 3.885583-1.685517 3.885583-3.7647056v.0000002c0-2.0791905-1.739634-3.7647058-3.885583-3.7647058z" fill="#fff" fill-rule="evenodd" transform="translate(-765 -12)"/></svg>