<svg width="37" height="38" viewBox="0 0 37 38" fill="#fff" fill-rule="evenodd" xmlns="http://www.w3.org/2000/svg">
<path d="M18.2815 0.966492C8.2538 0.966492 0.090622 9.12185 0.0869796 19.1486C0.0851583 22.3536 0.924717 25.4825 2.51647 28.2396L0.0478516 37.3875L9.5773 35.1361C12.2345 36.5857 15.2257 37.3466 18.2708 37.3484H18.2779C28.3038 37.3484 36.4634 29.1912 36.4689 19.1663C36.4725 14.306 34.5823 9.7362 31.1475 6.29805C27.7126 2.86172 23.1478 0.968313 18.2815 0.966492ZM18.2779 4.6086C22.1681 4.61042 25.8239 6.12698 28.5722 8.87313C31.3204 11.6229 32.8301 15.2767 32.8264 19.1628C32.8228 27.1827 26.2987 33.7063 18.2744 33.7063C15.8467 33.7045 13.4419 33.095 11.3238 31.9386L10.0966 31.2699L8.74138 31.5901L5.15583 32.4366L6.03088 29.1857L6.42571 27.7274L5.67161 26.4185C4.40039 24.2187 3.72762 21.7035 3.72944 19.1486C3.73308 11.1323 10.2591 4.6086 18.2779 4.6086ZM11.8432 10.7546C11.539 10.7546 11.0473 10.8685 10.6302 11.3237C10.2131 11.7772 9.03662 12.8754 9.03662 15.1117C9.03662 17.3479 10.6658 19.5096 10.8934 19.8137C11.1193 20.116 14.0381 24.85 18.6585 26.6711C22.4977 28.1844 23.2774 27.8857 24.1116 27.8092C24.9457 27.7346 26.8025 26.712 27.1813 25.6503C27.5601 24.5886 27.561 23.6754 27.4481 23.4878C27.3352 23.2984 27.0319 23.1855 26.5766 22.9578C26.1231 22.7302 23.8884 21.6329 23.4713 21.4818C23.0542 21.3306 22.7492 21.2542 22.4468 21.7094C22.1445 22.1647 21.2757 23.1855 21.0098 23.4878C20.7439 23.7919 20.4798 23.8328 20.0245 23.6052C19.5692 23.3757 18.1052 22.8945 16.3678 21.3466C15.0164 20.1429 14.1046 18.6577 13.8387 18.2025C13.5746 17.749 13.8138 17.5 14.0414 17.2742C14.2454 17.0702 14.4932 16.7433 14.7208 16.4774C14.9467 16.2116 15.025 16.0222 15.1762 15.7199C15.3273 15.4176 15.2499 15.1508 15.137 14.9232C15.0241 14.6955 14.1398 12.451 13.7355 11.5514C13.395 10.7956 13.0353 10.7781 12.7111 10.7653C12.447 10.7544 12.1455 10.7546 11.8432 10.7546Z" fill="black" fill-opacity="0.93"/>
</svg>
