<svg width="212" height="57" viewBox="0 0 212 57" fill="none" xmlns="http://www.w3.org/2000/svg">
<path d="M67.796 42.434C66.0187 42.434 64.3033 42.217 62.65 41.783C61.0173 41.3283 59.6843 40.7497 58.651 40.047L60.666 35.521C61.6373 36.141 62.7533 36.6577 64.014 37.071C65.2953 37.4637 66.5663 37.66 67.827 37.66C68.6743 37.66 69.3563 37.5877 69.873 37.443C70.3897 37.2777 70.7617 37.071 70.989 36.823C71.237 36.5543 71.361 36.2443 71.361 35.893C71.361 35.397 71.1337 35.0043 70.679 34.715C70.2243 34.4257 69.6353 34.188 68.912 34.002C68.1887 33.816 67.3827 33.63 66.494 33.444C65.626 33.258 64.7477 33.0203 63.859 32.731C62.991 32.4417 62.1953 32.0697 61.472 31.615C60.7487 31.1397 60.1597 30.53 59.705 29.786C59.2503 29.0213 59.023 28.0603 59.023 26.903C59.023 25.601 59.3743 24.423 60.077 23.369C60.8003 22.315 61.875 21.4677 63.301 20.827C64.727 20.1863 66.5043 19.866 68.633 19.866C70.059 19.866 71.454 20.0313 72.818 20.362C74.2027 20.672 75.4323 21.137 76.507 21.757L74.616 26.314C73.5827 25.756 72.5597 25.3427 71.547 25.074C70.5343 24.7847 69.5527 24.64 68.602 24.64C67.7547 24.64 67.0727 24.733 66.556 24.919C66.0393 25.0843 65.6673 25.3117 65.44 25.601C65.2127 25.8903 65.099 26.221 65.099 26.593C65.099 27.0683 65.316 27.4507 65.75 27.74C66.2047 28.0087 66.7937 28.236 67.517 28.422C68.261 28.5873 69.067 28.763 69.935 28.949C70.8237 29.135 71.702 29.3727 72.57 29.662C73.4587 29.9307 74.2647 30.3027 74.988 30.778C75.7113 31.2327 76.29 31.8423 76.724 32.607C77.1787 33.351 77.406 34.2913 77.406 35.428C77.406 36.6887 77.0443 37.8563 76.321 38.931C75.6183 39.985 74.554 40.8323 73.128 41.473C71.7227 42.1137 69.9453 42.434 67.796 42.434ZM94.7493 20.3H100.887V42H94.7493V20.3ZM86.3793 42H80.2413V20.3H86.3793V42ZM95.1833 33.537H85.9453V28.453H95.1833V33.537ZM110.859 28.701H120.934V33.289H110.859V28.701ZM111.293 37.257H122.639V42H105.217V20.3H122.236V25.043H111.293V37.257ZM126.045 42V20.3H135.965C137.949 20.3 139.654 20.6203 141.08 21.261C142.527 21.9017 143.643 22.8317 144.428 24.051C145.213 25.2497 145.606 26.6757 145.606 28.329C145.606 29.9617 145.213 31.3773 144.428 32.576C143.643 33.754 142.527 34.6633 141.08 35.304C139.654 35.924 137.949 36.234 135.965 36.234H129.455L132.183 33.661V42H126.045ZM139.468 42L134.074 34.095H140.615L146.04 42H139.468ZM132.183 34.312L129.455 31.491H135.593C136.874 31.491 137.825 31.212 138.445 30.654C139.086 30.096 139.406 29.321 139.406 28.329C139.406 27.3163 139.086 26.531 138.445 25.973C137.825 25.415 136.874 25.136 135.593 25.136H129.455L132.183 22.315V34.312ZM148.992 42V20.3H155.13V42H148.992ZM165.201 29.817H175.214V34.56H165.201V29.817ZM165.635 42H159.497V20.3H176.516V25.043H165.635V42ZM185.091 29.817H195.104V34.56H185.091V29.817ZM185.525 42H179.387V20.3H196.406V25.043H185.525V42Z" fill="black" fill-opacity="0.71"/>
<circle cx="28.5" cy="16.5" r="16.5" fill="#F23456"/>
<circle cx="41" cy="45" r="12" fill="#F6B718" fill-opacity="0.67"/>
<circle cx="12" cy="45" r="12" fill="#F8C2CC"/>
</svg>
