<svg width="1440" height="1024" viewBox="0 0 1440 1024" fill="none" xmlns="http://www.w3.org/2000/svg">
<g clip-path="url(#clip0_10_28)">
<rect width="1440" height="1024" fill="white"/>
<g clip-path="url(#clip1_10_28)">
<rect width="1512" height="982" transform="translate(-18 21)" fill="white"/>
<circle cx="738" cy="-171" r="252" fill="#F8C2CC"/>
<path d="M1350.96 55.9072C1349.01 53.5926 1349.29 50.099 1351.86 48.4954C1358.96 44.0541 1367.36 41.9993 1375.8 42.726C1386.08 43.6101 1395.58 48.5399 1402.22 56.4308C1408.86 64.3217 1412.1 74.5273 1411.21 84.8026C1410.49 93.2472 1407.03 101.17 1401.44 107.412C1399.42 109.665 1395.93 109.345 1393.98 107.031V107.031C1392.03 104.716 1392.38 101.287 1394.27 98.9257C1397.7 94.643 1399.82 89.4098 1400.3 83.8634C1400.93 76.4829 1398.61 69.1524 1393.84 63.4845C1389.07 57.8166 1382.24 54.2757 1374.86 53.6406C1369.32 53.1634 1363.8 54.3565 1358.99 57.0033C1356.34 58.4627 1352.91 58.2218 1350.96 55.9072V55.9072Z" fill="#F23456"/>
<circle cx="1371.8" cy="82.1199" r="18.5" transform="rotate(90.6594 1371.8 82.1199)" fill="#F8C2CC"/>
<path d="M1369.96 910.907C1368.01 908.593 1368.29 905.099 1370.86 903.495C1377.96 899.054 1386.36 896.999 1394.8 897.726C1405.08 898.61 1414.58 903.54 1421.22 911.431C1427.86 919.322 1431.1 929.527 1430.21 939.803C1429.49 948.247 1426.03 956.17 1420.44 962.412C1418.42 964.665 1414.93 964.345 1412.98 962.031V962.031C1411.03 959.716 1411.38 956.287 1413.27 953.926C1416.7 949.643 1418.82 944.41 1419.3 938.863C1419.93 931.483 1417.61 924.152 1412.84 918.485C1408.07 912.817 1401.24 909.276 1393.86 908.641C1388.32 908.163 1382.8 909.357 1377.99 912.003C1375.34 913.463 1371.91 913.222 1369.96 910.907V910.907Z" fill="#F23456"/>
<circle cx="1390.8" cy="937.12" r="18.5" transform="rotate(90.6594 1390.8 937.12)" fill="#F8C2CC"/>
<path d="M67.7665 901.937C68.9508 899.334 72.0473 898.155 74.4585 899.693C81.1365 903.952 86.3029 910.286 89.114 917.79C92.5345 926.92 92.1879 937.036 88.1502 945.911C84.1126 954.786 76.7148 961.693 67.5842 965.114C60.0803 967.925 51.9113 968.192 44.3122 965.956C41.5685 965.149 40.4233 962.04 41.6076 959.437V959.437C42.792 956.833 45.8611 955.739 48.6452 956.393C53.6943 957.58 59.0223 957.262 63.9508 955.415C70.5091 952.958 75.8229 947.997 78.723 941.622C81.6231 935.247 81.8722 927.982 79.4152 921.423C77.5689 916.495 74.3081 912.269 70.0961 909.243C67.7735 907.574 66.5822 904.541 67.7665 901.937V901.937Z" fill="#F23456"/>
<circle cx="54.5" cy="930.5" r="18.5" fill="#F8C2CC"/>
<path d="M58.8089 94.3677C56.9327 96.5263 53.6286 96.7761 51.7548 94.6155C46.5649 88.6315 43.4144 81.0897 42.8548 73.0961C42.1738 63.3696 45.3845 53.771 51.7806 46.4118C58.1768 39.0527 67.2343 34.5358 76.9608 33.8548C84.9544 33.2951 92.8616 35.364 99.5104 39.6694C101.911 41.2239 102.124 44.5306 100.248 46.6892V46.6892C98.3718 48.8478 95.1181 49.0238 92.6353 47.6043C88.1326 45.0299 82.9343 43.8189 77.6842 44.1865C70.6978 44.6756 64.192 47.92 59.5977 53.206C55.0035 58.4919 52.6973 65.3864 53.1865 72.3727C53.554 77.6229 55.4776 82.6017 58.6543 86.7018C60.4059 88.9626 60.685 92.2091 58.8089 94.3677V94.3677Z" fill="#F23456"/>
<circle cx="79.6545" cy="70.761" r="18.5" transform="rotate(-163.468 79.6545 70.761)" fill="#F8C2CC"/>
<circle cx="737.5" cy="493.5" r="18.5" fill="#1E8E3E" fill-opacity="0.13"/>
</g>
</g>
<defs>
<clipPath id="clip0_10_28">
<rect width="1440" height="1024" fill="white"/>
</clipPath>
<clipPath id="clip1_10_28">
<rect width="1512" height="982" fill="white" transform="translate(-18 21)"/>
</clipPath>
</defs>
</svg>
